<svg xmlns="http://www.w3.org/2000/svg" viewBox="0 0 24 30" fill="none" x="0px" y="0px"><path fill-rule="evenodd" clip-rule="evenodd" d="M12 5.49963C10.2761 5.49963 8.62284 6.18445 7.40385 7.40344C6.18486 8.62243 5.50005 10.2757 5.50005 11.9996C5.50005 13.7235 6.18487 15.3768 7.40385 16.5958C8.62284 17.8148 10.2761 18.4996 12 18.4996C13.724 18.4996 15.3773 17.8148 16.5962 16.5958C17.8152 15.3768 18.5 13.7235 18.5 11.9996C18.5 10.2757 17.8152 8.62242 16.5962 7.40344C15.3773 6.18445 13.724 5.49963 12 5.49963ZM6.69674 6.69633C8.10327 5.28981 10.0109 4.49963 12 4.49963C13.9892 4.49963 15.8968 5.28981 17.3033 6.69633C18.7099 8.10285 19.5 10.0105 19.5 11.9996C19.5 13.9888 18.7099 15.8964 17.3033 17.3029C15.8968 18.7095 13.9892 19.4996 12 19.4996C10.0109 19.4996 8.10327 18.7095 6.69675 17.3029C5.29022 15.8964 4.50005 13.9888 4.50005 11.9996C4.50005 10.0105 5.29022 8.10286 6.69674 6.69633ZM12.5 11.7113V8C12.5 7.72386 12.2761 7.5 12 7.5C11.7239 7.5 11.5 7.72386 11.5 8V11.9904C11.4996 12.01 11.5004 12.0296 11.5024 12.049C11.5094 12.1217 11.5321 12.1899 11.567 12.2501C11.6017 12.3104 11.6494 12.364 11.7088 12.4065C11.7246 12.4179 11.7412 12.4283 11.7583 12.4378L15.2141 14.433C15.4532 14.5711 15.759 14.4891 15.8971 14.25C16.0352 14.0109 15.9532 13.7051 15.7141 13.567L12.5 11.7113Z" fill="black"/><text x="0" y="39" fill="#000000" font-size="5px" font-weight="bold" font-family="'Helvetica Neue', Helvetica, Arial-Unicode, Arial, Sans-serif">Created by Tadu Puasandi</text><text x="0" y="44" fill="#000000" font-size="5px" font-weight="bold" font-family="'Helvetica Neue', Helvetica, Arial-Unicode, Arial, Sans-serif">from the Noun Project</text></svg>